<mxfile host="app.diagrams.net" agent="Mozilla/5.0 (Windows NT 10.0; Win64; x64) AppleWebKit/537.36 (KHTML, like Gecko) Chrome/140.0.0.0 Safari/537.36" version="28.2.5">
  <diagram name="Страница — 1" id="8CQ2pr-ZRCYKZN3EN2c2">
    <mxGraphModel dx="2007" dy="1651" grid="1" gridSize="10" guides="1" tooltips="1" connect="1" arrows="1" fold="1" page="1" pageScale="1" pageWidth="827" pageHeight="1169" math="0" shadow="0">
      <root>
        <mxCell id="0" />
        <mxCell id="1" parent="0" />
        <mxCell id="GFeIhN1m6Tv52jOoHImK-1" value="&amp;lt;&amp;lt;abstract class&amp;gt;&amp;gt;&lt;br&gt;&lt;b&gt;Person&lt;/b&gt;&lt;div&gt;&lt;br/&gt;&lt;/div&gt;" style="swimlane;fontStyle=0;align=center;verticalAlign=top;childLayout=stackLayout;horizontal=1;startSize=55;horizontalStack=0;resizeParent=1;resizeParentMax=0;resizeLast=0;collapsible=0;marginBottom=0;html=1;whiteSpace=wrap;" vertex="1" parent="1">
          <mxGeometry x="230" y="220" width="240" height="531" as="geometry" />
        </mxCell>
        <mxCell id="GFeIhN1m6Tv52jOoHImK-9" value="attributes" style="text;html=1;strokeColor=none;fillColor=none;align=center;verticalAlign=middle;spacingLeft=4;spacingRight=4;overflow=hidden;rotatable=0;points=[[0,0.5],[1,0.5]];portConstraint=eastwest;whiteSpace=wrap;" vertex="1" parent="GFeIhN1m6Tv52jOoHImK-1">
          <mxGeometry y="55" width="240" height="20" as="geometry" />
        </mxCell>
        <mxCell id="GFeIhN1m6Tv52jOoHImK-10" value="- id : UUID" style="text;html=1;strokeColor=none;fillColor=none;align=left;verticalAlign=middle;spacingLeft=4;spacingRight=4;overflow=hidden;rotatable=0;points=[[0,0.5],[1,0.5]];portConstraint=eastwest;whiteSpace=wrap;" vertex="1" parent="GFeIhN1m6Tv52jOoHImK-1">
          <mxGeometry y="75" width="240" height="35" as="geometry" />
        </mxCell>
        <mxCell id="GFeIhN1m6Tv52jOoHImK-11" value="- firstName : String" style="text;html=1;strokeColor=none;fillColor=none;align=left;verticalAlign=middle;spacingLeft=4;spacingRight=4;overflow=hidden;rotatable=0;points=[[0,0.5],[1,0.5]];portConstraint=eastwest;whiteSpace=wrap;" vertex="1" parent="GFeIhN1m6Tv52jOoHImK-1">
          <mxGeometry y="110" width="240" height="35" as="geometry" />
        </mxCell>
        <mxCell id="GFeIhN1m6Tv52jOoHImK-12" value="- lastName : String" style="text;html=1;strokeColor=none;fillColor=none;align=left;verticalAlign=middle;spacingLeft=4;spacingRight=4;overflow=hidden;rotatable=0;points=[[0,0.5],[1,0.5]];portConstraint=eastwest;whiteSpace=wrap;" vertex="1" parent="GFeIhN1m6Tv52jOoHImK-1">
          <mxGeometry y="145" width="240" height="35" as="geometry" />
        </mxCell>
        <mxCell id="GFeIhN1m6Tv52jOoHImK-13" value="- dateOfBirth : Date" style="text;html=1;strokeColor=none;fillColor=none;align=left;verticalAlign=middle;spacingLeft=4;spacingRight=4;overflow=hidden;rotatable=0;points=[[0,0.5],[1,0.5]];portConstraint=eastwest;whiteSpace=wrap;" vertex="1" parent="GFeIhN1m6Tv52jOoHImK-1">
          <mxGeometry y="180" width="240" height="35" as="geometry" />
        </mxCell>
        <mxCell id="GFeIhN1m6Tv52jOoHImK-14" value="- gender : String" style="text;html=1;strokeColor=none;fillColor=none;align=left;verticalAlign=middle;spacingLeft=4;spacingRight=4;overflow=hidden;rotatable=0;points=[[0,0.5],[1,0.5]];portConstraint=eastwest;whiteSpace=wrap;" vertex="1" parent="GFeIhN1m6Tv52jOoHImK-1">
          <mxGeometry y="215" width="240" height="35" as="geometry" />
        </mxCell>
        <mxCell id="GFeIhN1m6Tv52jOoHImK-15" value="- phoneNumber : String" style="text;html=1;strokeColor=none;fillColor=none;align=left;verticalAlign=middle;spacingLeft=4;spacingRight=4;overflow=hidden;rotatable=0;points=[[0,0.5],[1,0.5]];portConstraint=eastwest;whiteSpace=wrap;" vertex="1" parent="GFeIhN1m6Tv52jOoHImK-1">
          <mxGeometry y="250" width="240" height="35" as="geometry" />
        </mxCell>
        <mxCell id="GFeIhN1m6Tv52jOoHImK-16" value="- email : String" style="text;html=1;strokeColor=none;fillColor=none;align=left;verticalAlign=middle;spacingLeft=4;spacingRight=4;overflow=hidden;rotatable=0;points=[[0,0.5],[1,0.5]];portConstraint=eastwest;whiteSpace=wrap;" vertex="1" parent="GFeIhN1m6Tv52jOoHImK-1">
          <mxGeometry y="285" width="240" height="35" as="geometry" />
        </mxCell>
        <mxCell id="GFeIhN1m6Tv52jOoHImK-2" value="- address : String" style="text;html=1;strokeColor=none;fillColor=none;align=left;verticalAlign=middle;spacingLeft=4;spacingRight=4;overflow=hidden;rotatable=0;points=[[0,0.5],[1,0.5]];portConstraint=eastwest;whiteSpace=wrap;" vertex="1" parent="GFeIhN1m6Tv52jOoHImK-1">
          <mxGeometry y="320" width="240" height="35" as="geometry" />
        </mxCell>
        <mxCell id="GFeIhN1m6Tv52jOoHImK-6" value="" style="line;strokeWidth=1;fillColor=none;align=left;verticalAlign=middle;spacingTop=-1;spacingLeft=3;spacingRight=3;rotatable=0;labelPosition=right;points=[];portConstraint=eastwest;" vertex="1" parent="GFeIhN1m6Tv52jOoHImK-1">
          <mxGeometry y="355" width="240" height="8" as="geometry" />
        </mxCell>
        <mxCell id="GFeIhN1m6Tv52jOoHImK-7" value="operations" style="text;html=1;strokeColor=none;fillColor=none;align=center;verticalAlign=middle;spacingLeft=4;spacingRight=4;overflow=hidden;rotatable=0;points=[[0,0.5],[1,0.5]];portConstraint=eastwest;whiteSpace=wrap;" vertex="1" parent="GFeIhN1m6Tv52jOoHImK-1">
          <mxGeometry y="363" width="240" height="20" as="geometry" />
        </mxCell>
        <mxCell id="GFeIhN1m6Tv52jOoHImK-17" value="+ getFullName() : String" style="text;html=1;strokeColor=none;fillColor=none;align=left;verticalAlign=middle;spacingLeft=4;spacingRight=4;overflow=hidden;rotatable=0;points=[[0,0.5],[1,0.5]];portConstraint=eastwest;whiteSpace=wrap;" vertex="1" parent="GFeIhN1m6Tv52jOoHImK-1">
          <mxGeometry y="383" width="240" height="37" as="geometry" />
        </mxCell>
        <mxCell id="GFeIhN1m6Tv52jOoHImK-18" value="+ getAge() : int" style="text;html=1;strokeColor=none;fillColor=none;align=left;verticalAlign=middle;spacingLeft=4;spacingRight=4;overflow=hidden;rotatable=0;points=[[0,0.5],[1,0.5]];portConstraint=eastwest;whiteSpace=wrap;" vertex="1" parent="GFeIhN1m6Tv52jOoHImK-1">
          <mxGeometry y="420" width="240" height="37" as="geometry" />
        </mxCell>
        <mxCell id="GFeIhN1m6Tv52jOoHImK-19" value="+ updateContactInfo(phone : String, email : String) : void" style="text;html=1;strokeColor=none;fillColor=none;align=left;verticalAlign=middle;spacingLeft=4;spacingRight=4;overflow=hidden;rotatable=0;points=[[0,0.5],[1,0.5]];portConstraint=eastwest;whiteSpace=wrap;" vertex="1" parent="GFeIhN1m6Tv52jOoHImK-1">
          <mxGeometry y="457" width="240" height="37" as="geometry" />
        </mxCell>
        <mxCell id="GFeIhN1m6Tv52jOoHImK-8" value="+ validate() : boolean" style="text;html=1;strokeColor=none;fillColor=none;align=left;verticalAlign=middle;spacingLeft=4;spacingRight=4;overflow=hidden;rotatable=0;points=[[0,0.5],[1,0.5]];portConstraint=eastwest;whiteSpace=wrap;" vertex="1" parent="GFeIhN1m6Tv52jOoHImK-1">
          <mxGeometry y="494" width="240" height="37" as="geometry" />
        </mxCell>
        <mxCell id="GFeIhN1m6Tv52jOoHImK-132" style="edgeStyle=orthogonalEdgeStyle;rounded=0;orthogonalLoop=1;jettySize=auto;html=1;exitX=0.25;exitY=0;exitDx=0;exitDy=0;entryX=0.25;entryY=0;entryDx=0;entryDy=0;" edge="1" parent="1" source="GFeIhN1m6Tv52jOoHImK-20" target="GFeIhN1m6Tv52jOoHImK-1">
          <mxGeometry relative="1" as="geometry">
            <Array as="points">
              <mxPoint x="280" y="791" />
              <mxPoint x="150" y="791" />
              <mxPoint x="150" y="200" />
              <mxPoint x="290" y="200" />
            </Array>
          </mxGeometry>
        </mxCell>
        <mxCell id="GFeIhN1m6Tv52jOoHImK-20" value="&lt;b&gt;Employee&lt;/b&gt;&lt;div&gt;&lt;br&gt;&lt;/div&gt;" style="swimlane;fontStyle=0;align=center;verticalAlign=top;childLayout=stackLayout;horizontal=1;startSize=55;horizontalStack=0;resizeParent=1;resizeParentMax=0;resizeLast=0;collapsible=0;marginBottom=0;html=1;whiteSpace=wrap;" vertex="1" parent="1">
          <mxGeometry x="230" y="830" width="240" height="640" as="geometry" />
        </mxCell>
        <mxCell id="GFeIhN1m6Tv52jOoHImK-21" value="attributes" style="text;html=1;strokeColor=none;fillColor=none;align=center;verticalAlign=middle;spacingLeft=4;spacingRight=4;overflow=hidden;rotatable=0;points=[[0,0.5],[1,0.5]];portConstraint=eastwest;whiteSpace=wrap;" vertex="1" parent="GFeIhN1m6Tv52jOoHImK-20">
          <mxGeometry y="55" width="240" height="20" as="geometry" />
        </mxCell>
        <mxCell id="GFeIhN1m6Tv52jOoHImK-22" value="- employeeId : String" style="text;html=1;strokeColor=none;fillColor=none;align=left;verticalAlign=middle;spacingLeft=4;spacingRight=4;overflow=hidden;rotatable=0;points=[[0,0.5],[1,0.5]];portConstraint=eastwest;whiteSpace=wrap;" vertex="1" parent="GFeIhN1m6Tv52jOoHImK-20">
          <mxGeometry y="75" width="240" height="35" as="geometry" />
        </mxCell>
        <mxCell id="GFeIhN1m6Tv52jOoHImK-23" value="- position : String" style="text;html=1;strokeColor=none;fillColor=none;align=left;verticalAlign=middle;spacingLeft=4;spacingRight=4;overflow=hidden;rotatable=0;points=[[0,0.5],[1,0.5]];portConstraint=eastwest;whiteSpace=wrap;" vertex="1" parent="GFeIhN1m6Tv52jOoHImK-20">
          <mxGeometry y="110" width="240" height="35" as="geometry" />
        </mxCell>
        <mxCell id="GFeIhN1m6Tv52jOoHImK-24" value="- salaryAmount : double" style="text;html=1;strokeColor=none;fillColor=none;align=left;verticalAlign=middle;spacingLeft=4;spacingRight=4;overflow=hidden;rotatable=0;points=[[0,0.5],[1,0.5]];portConstraint=eastwest;whiteSpace=wrap;" vertex="1" parent="GFeIhN1m6Tv52jOoHImK-20">
          <mxGeometry y="145" width="240" height="35" as="geometry" />
        </mxCell>
        <mxCell id="GFeIhN1m6Tv52jOoHImK-25" value="- hireDate : Date" style="text;html=1;strokeColor=none;fillColor=none;align=left;verticalAlign=middle;spacingLeft=4;spacingRight=4;overflow=hidden;rotatable=0;points=[[0,0.5],[1,0.5]];portConstraint=eastwest;whiteSpace=wrap;" vertex="1" parent="GFeIhN1m6Tv52jOoHImK-20">
          <mxGeometry y="180" width="240" height="35" as="geometry" />
        </mxCell>
        <mxCell id="GFeIhN1m6Tv52jOoHImK-26" value="- workSchedule : String" style="text;html=1;strokeColor=none;fillColor=none;align=left;verticalAlign=middle;spacingLeft=4;spacingRight=4;overflow=hidden;rotatable=0;points=[[0,0.5],[1,0.5]];portConstraint=eastwest;whiteSpace=wrap;" vertex="1" parent="GFeIhN1m6Tv52jOoHImK-20">
          <mxGeometry y="215" width="240" height="35" as="geometry" />
        </mxCell>
        <mxCell id="GFeIhN1m6Tv52jOoHImK-27" value="- isActive : boolean&amp;nbsp;" style="text;html=1;strokeColor=none;fillColor=none;align=left;verticalAlign=middle;spacingLeft=4;spacingRight=4;overflow=hidden;rotatable=0;points=[[0,0.5],[1,0.5]];portConstraint=eastwest;whiteSpace=wrap;" vertex="1" parent="GFeIhN1m6Tv52jOoHImK-20">
          <mxGeometry y="250" width="240" height="35" as="geometry" />
        </mxCell>
        <mxCell id="GFeIhN1m6Tv52jOoHImK-28" value="- department : Department" style="text;html=1;strokeColor=none;fillColor=none;align=left;verticalAlign=middle;spacingLeft=4;spacingRight=4;overflow=hidden;rotatable=0;points=[[0,0.5],[1,0.5]];portConstraint=eastwest;whiteSpace=wrap;" vertex="1" parent="GFeIhN1m6Tv52jOoHImK-20">
          <mxGeometry y="285" width="240" height="35" as="geometry" />
        </mxCell>
        <mxCell id="GFeIhN1m6Tv52jOoHImK-36" value="- salaryHistory : List&amp;lt;Salary&amp;gt;&amp;nbsp;" style="text;html=1;strokeColor=none;fillColor=none;align=left;verticalAlign=middle;spacingLeft=4;spacingRight=4;overflow=hidden;rotatable=0;points=[[0,0.5],[1,0.5]];portConstraint=eastwest;whiteSpace=wrap;" vertex="1" parent="GFeIhN1m6Tv52jOoHImK-20">
          <mxGeometry y="320" width="240" height="35" as="geometry" />
        </mxCell>
        <mxCell id="GFeIhN1m6Tv52jOoHImK-29" value="- vacationRequests : List&amp;lt;VacationRequst&amp;gt;" style="text;html=1;strokeColor=none;fillColor=none;align=left;verticalAlign=middle;spacingLeft=4;spacingRight=4;overflow=hidden;rotatable=0;points=[[0,0.5],[1,0.5]];portConstraint=eastwest;whiteSpace=wrap;" vertex="1" parent="GFeIhN1m6Tv52jOoHImK-20">
          <mxGeometry y="355" width="240" height="35" as="geometry" />
        </mxCell>
        <mxCell id="GFeIhN1m6Tv52jOoHImK-30" value="" style="line;strokeWidth=1;fillColor=none;align=left;verticalAlign=middle;spacingTop=-1;spacingLeft=3;spacingRight=3;rotatable=0;labelPosition=right;points=[];portConstraint=eastwest;" vertex="1" parent="GFeIhN1m6Tv52jOoHImK-20">
          <mxGeometry y="390" width="240" height="8" as="geometry" />
        </mxCell>
        <mxCell id="GFeIhN1m6Tv52jOoHImK-31" value="operations" style="text;html=1;strokeColor=none;fillColor=none;align=center;verticalAlign=middle;spacingLeft=4;spacingRight=4;overflow=hidden;rotatable=0;points=[[0,0.5],[1,0.5]];portConstraint=eastwest;whiteSpace=wrap;" vertex="1" parent="GFeIhN1m6Tv52jOoHImK-20">
          <mxGeometry y="398" width="240" height="20" as="geometry" />
        </mxCell>
        <mxCell id="GFeIhN1m6Tv52jOoHImK-32" value="+ calculateCurrentSalary() : double" style="text;html=1;strokeColor=none;fillColor=none;align=left;verticalAlign=middle;spacingLeft=4;spacingRight=4;overflow=hidden;rotatable=0;points=[[0,0.5],[1,0.5]];portConstraint=eastwest;whiteSpace=wrap;" vertex="1" parent="GFeIhN1m6Tv52jOoHImK-20">
          <mxGeometry y="418" width="240" height="37" as="geometry" />
        </mxCell>
        <mxCell id="GFeIhN1m6Tv52jOoHImK-33" value="+ promote(newPosition : String) : void" style="text;html=1;strokeColor=none;fillColor=none;align=left;verticalAlign=middle;spacingLeft=4;spacingRight=4;overflow=hidden;rotatable=0;points=[[0,0.5],[1,0.5]];portConstraint=eastwest;whiteSpace=wrap;" vertex="1" parent="GFeIhN1m6Tv52jOoHImK-20">
          <mxGeometry y="455" width="240" height="37" as="geometry" />
        </mxCell>
        <mxCell id="GFeIhN1m6Tv52jOoHImK-34" value="+ requestVacation(startDate : Date, endDate : Date) : VacationRequest" style="text;html=1;strokeColor=none;fillColor=none;align=left;verticalAlign=middle;spacingLeft=4;spacingRight=4;overflow=hidden;rotatable=0;points=[[0,0.5],[1,0.5]];portConstraint=eastwest;whiteSpace=wrap;" vertex="1" parent="GFeIhN1m6Tv52jOoHImK-20">
          <mxGeometry y="492" width="240" height="37" as="geometry" />
        </mxCell>
        <mxCell id="GFeIhN1m6Tv52jOoHImK-37" value="+ getWorkExperience() : int" style="text;html=1;strokeColor=none;fillColor=none;align=left;verticalAlign=middle;spacingLeft=4;spacingRight=4;overflow=hidden;rotatable=0;points=[[0,0.5],[1,0.5]];portConstraint=eastwest;whiteSpace=wrap;" vertex="1" parent="GFeIhN1m6Tv52jOoHImK-20">
          <mxGeometry y="529" width="240" height="37" as="geometry" />
        </mxCell>
        <mxCell id="GFeIhN1m6Tv52jOoHImK-38" value="+ generatePerformanceReport() : String" style="text;html=1;strokeColor=none;fillColor=none;align=left;verticalAlign=middle;spacingLeft=4;spacingRight=4;overflow=hidden;rotatable=0;points=[[0,0.5],[1,0.5]];portConstraint=eastwest;whiteSpace=wrap;" vertex="1" parent="GFeIhN1m6Tv52jOoHImK-20">
          <mxGeometry y="566" width="240" height="37" as="geometry" />
        </mxCell>
        <mxCell id="GFeIhN1m6Tv52jOoHImK-35" value="+ getDepartmentInfo() : Department" style="text;html=1;strokeColor=none;fillColor=none;align=left;verticalAlign=middle;spacingLeft=4;spacingRight=4;overflow=hidden;rotatable=0;points=[[0,0.5],[1,0.5]];portConstraint=eastwest;whiteSpace=wrap;" vertex="1" parent="GFeIhN1m6Tv52jOoHImK-20">
          <mxGeometry y="603" width="240" height="37" as="geometry" />
        </mxCell>
        <mxCell id="GFeIhN1m6Tv52jOoHImK-55" value="&lt;div&gt;&lt;b&gt;Department&lt;/b&gt;&lt;/div&gt;" style="swimlane;fontStyle=0;align=center;verticalAlign=top;childLayout=stackLayout;horizontal=1;startSize=55;horizontalStack=0;resizeParent=1;resizeParentMax=0;resizeLast=0;collapsible=0;marginBottom=0;html=1;whiteSpace=wrap;" vertex="1" parent="1">
          <mxGeometry x="630" y="830" width="240" height="537" as="geometry" />
        </mxCell>
        <mxCell id="GFeIhN1m6Tv52jOoHImK-56" value="attributes" style="text;html=1;strokeColor=none;fillColor=none;align=center;verticalAlign=middle;spacingLeft=4;spacingRight=4;overflow=hidden;rotatable=0;points=[[0,0.5],[1,0.5]];portConstraint=eastwest;whiteSpace=wrap;" vertex="1" parent="GFeIhN1m6Tv52jOoHImK-55">
          <mxGeometry y="55" width="240" height="20" as="geometry" />
        </mxCell>
        <mxCell id="GFeIhN1m6Tv52jOoHImK-57" value="- departmentId : String" style="text;html=1;strokeColor=none;fillColor=none;align=left;verticalAlign=middle;spacingLeft=4;spacingRight=4;overflow=hidden;rotatable=0;points=[[0,0.5],[1,0.5]];portConstraint=eastwest;whiteSpace=wrap;" vertex="1" parent="GFeIhN1m6Tv52jOoHImK-55">
          <mxGeometry y="75" width="240" height="35" as="geometry" />
        </mxCell>
        <mxCell id="GFeIhN1m6Tv52jOoHImK-58" value="- name : String" style="text;html=1;strokeColor=none;fillColor=none;align=left;verticalAlign=middle;spacingLeft=4;spacingRight=4;overflow=hidden;rotatable=0;points=[[0,0.5],[1,0.5]];portConstraint=eastwest;whiteSpace=wrap;" vertex="1" parent="GFeIhN1m6Tv52jOoHImK-55">
          <mxGeometry y="110" width="240" height="35" as="geometry" />
        </mxCell>
        <mxCell id="GFeIhN1m6Tv52jOoHImK-59" value="- budget : double" style="text;html=1;strokeColor=none;fillColor=none;align=left;verticalAlign=middle;spacingLeft=4;spacingRight=4;overflow=hidden;rotatable=0;points=[[0,0.5],[1,0.5]];portConstraint=eastwest;whiteSpace=wrap;" vertex="1" parent="GFeIhN1m6Tv52jOoHImK-55">
          <mxGeometry y="145" width="240" height="35" as="geometry" />
        </mxCell>
        <mxCell id="GFeIhN1m6Tv52jOoHImK-60" value="- location : String" style="text;html=1;strokeColor=none;fillColor=none;align=left;verticalAlign=middle;spacingLeft=4;spacingRight=4;overflow=hidden;rotatable=0;points=[[0,0.5],[1,0.5]];portConstraint=eastwest;whiteSpace=wrap;" vertex="1" parent="GFeIhN1m6Tv52jOoHImK-55">
          <mxGeometry y="180" width="240" height="35" as="geometry" />
        </mxCell>
        <mxCell id="GFeIhN1m6Tv52jOoHImK-61" value="- employees : List&amp;lt;Employee&amp;gt;" style="text;html=1;strokeColor=none;fillColor=none;align=left;verticalAlign=middle;spacingLeft=4;spacingRight=4;overflow=hidden;rotatable=0;points=[[0,0.5],[1,0.5]];portConstraint=eastwest;whiteSpace=wrap;" vertex="1" parent="GFeIhN1m6Tv52jOoHImK-55">
          <mxGeometry y="215" width="240" height="35" as="geometry" />
        </mxCell>
        <mxCell id="GFeIhN1m6Tv52jOoHImK-66" value="" style="line;strokeWidth=1;fillColor=none;align=left;verticalAlign=middle;spacingTop=-1;spacingLeft=3;spacingRight=3;rotatable=0;labelPosition=right;points=[];portConstraint=eastwest;" vertex="1" parent="GFeIhN1m6Tv52jOoHImK-55">
          <mxGeometry y="250" width="240" height="8" as="geometry" />
        </mxCell>
        <mxCell id="GFeIhN1m6Tv52jOoHImK-67" value="operations" style="text;html=1;strokeColor=none;fillColor=none;align=center;verticalAlign=middle;spacingLeft=4;spacingRight=4;overflow=hidden;rotatable=0;points=[[0,0.5],[1,0.5]];portConstraint=eastwest;whiteSpace=wrap;" vertex="1" parent="GFeIhN1m6Tv52jOoHImK-55">
          <mxGeometry y="258" width="240" height="20" as="geometry" />
        </mxCell>
        <mxCell id="GFeIhN1m6Tv52jOoHImK-68" value="+ setManager(employee : Employee) : void" style="text;html=1;strokeColor=none;fillColor=none;align=left;verticalAlign=middle;spacingLeft=4;spacingRight=4;overflow=hidden;rotatable=0;points=[[0,0.5],[1,0.5]];portConstraint=eastwest;whiteSpace=wrap;" vertex="1" parent="GFeIhN1m6Tv52jOoHImK-55">
          <mxGeometry y="278" width="240" height="37" as="geometry" />
        </mxCell>
        <mxCell id="GFeIhN1m6Tv52jOoHImK-69" value="+ calculateBudgetUtilization() : double" style="text;html=1;strokeColor=none;fillColor=none;align=left;verticalAlign=middle;spacingLeft=4;spacingRight=4;overflow=hidden;rotatable=0;points=[[0,0.5],[1,0.5]];portConstraint=eastwest;whiteSpace=wrap;" vertex="1" parent="GFeIhN1m6Tv52jOoHImK-55">
          <mxGeometry y="315" width="240" height="37" as="geometry" />
        </mxCell>
        <mxCell id="GFeIhN1m6Tv52jOoHImK-70" value="+ getEmployeeCount() : int" style="text;html=1;strokeColor=none;fillColor=none;align=left;verticalAlign=middle;spacingLeft=4;spacingRight=4;overflow=hidden;rotatable=0;points=[[0,0.5],[1,0.5]];portConstraint=eastwest;whiteSpace=wrap;" vertex="1" parent="GFeIhN1m6Tv52jOoHImK-55">
          <mxGeometry y="352" width="240" height="37" as="geometry" />
        </mxCell>
        <mxCell id="GFeIhN1m6Tv52jOoHImK-71" value="+ addEmployee(employee : Employee) : boolean&amp;nbsp;&amp;nbsp;" style="text;html=1;strokeColor=none;fillColor=none;align=left;verticalAlign=middle;spacingLeft=4;spacingRight=4;overflow=hidden;rotatable=0;points=[[0,0.5],[1,0.5]];portConstraint=eastwest;whiteSpace=wrap;" vertex="1" parent="GFeIhN1m6Tv52jOoHImK-55">
          <mxGeometry y="389" width="240" height="37" as="geometry" />
        </mxCell>
        <mxCell id="GFeIhN1m6Tv52jOoHImK-72" value="+ removeEmployee(employeeId : String) : boolean" style="text;html=1;strokeColor=none;fillColor=none;align=left;verticalAlign=middle;spacingLeft=4;spacingRight=4;overflow=hidden;rotatable=0;points=[[0,0.5],[1,0.5]];portConstraint=eastwest;whiteSpace=wrap;" vertex="1" parent="GFeIhN1m6Tv52jOoHImK-55">
          <mxGeometry y="426" width="240" height="37" as="geometry" />
        </mxCell>
        <mxCell id="GFeIhN1m6Tv52jOoHImK-74" value="+ getAllEmployees() : List&amp;lt;Employee&amp;gt;" style="text;html=1;strokeColor=none;fillColor=none;align=left;verticalAlign=middle;spacingLeft=4;spacingRight=4;overflow=hidden;rotatable=0;points=[[0,0.5],[1,0.5]];portConstraint=eastwest;whiteSpace=wrap;" vertex="1" parent="GFeIhN1m6Tv52jOoHImK-55">
          <mxGeometry y="463" width="240" height="37" as="geometry" />
        </mxCell>
        <mxCell id="GFeIhN1m6Tv52jOoHImK-73" value="+ getManager() : Employee" style="text;html=1;strokeColor=none;fillColor=none;align=left;verticalAlign=middle;spacingLeft=4;spacingRight=4;overflow=hidden;rotatable=0;points=[[0,0.5],[1,0.5]];portConstraint=eastwest;whiteSpace=wrap;" vertex="1" parent="GFeIhN1m6Tv52jOoHImK-55">
          <mxGeometry y="500" width="240" height="37" as="geometry" />
        </mxCell>
        <mxCell id="GFeIhN1m6Tv52jOoHImK-75" value="&lt;div&gt;&lt;b&gt;Salary&lt;/b&gt;&lt;/div&gt;" style="swimlane;fontStyle=0;align=center;verticalAlign=top;childLayout=stackLayout;horizontal=1;startSize=55;horizontalStack=0;resizeParent=1;resizeParentMax=0;resizeLast=0;collapsible=0;marginBottom=0;html=1;whiteSpace=wrap;" vertex="1" parent="1">
          <mxGeometry x="-220" y="830" width="240" height="605" as="geometry" />
        </mxCell>
        <mxCell id="GFeIhN1m6Tv52jOoHImK-76" value="attributes" style="text;html=1;strokeColor=none;fillColor=none;align=center;verticalAlign=middle;spacingLeft=4;spacingRight=4;overflow=hidden;rotatable=0;points=[[0,0.5],[1,0.5]];portConstraint=eastwest;whiteSpace=wrap;" vertex="1" parent="GFeIhN1m6Tv52jOoHImK-75">
          <mxGeometry y="55" width="240" height="20" as="geometry" />
        </mxCell>
        <mxCell id="GFeIhN1m6Tv52jOoHImK-77" value="- salaryId : UUID" style="text;html=1;strokeColor=none;fillColor=none;align=left;verticalAlign=middle;spacingLeft=4;spacingRight=4;overflow=hidden;rotatable=0;points=[[0,0.5],[1,0.5]];portConstraint=eastwest;whiteSpace=wrap;" vertex="1" parent="GFeIhN1m6Tv52jOoHImK-75">
          <mxGeometry y="75" width="240" height="35" as="geometry" />
        </mxCell>
        <mxCell id="GFeIhN1m6Tv52jOoHImK-78" value="- employee : Employee" style="text;html=1;strokeColor=none;fillColor=none;align=left;verticalAlign=middle;spacingLeft=4;spacingRight=4;overflow=hidden;rotatable=0;points=[[0,0.5],[1,0.5]];portConstraint=eastwest;whiteSpace=wrap;" vertex="1" parent="GFeIhN1m6Tv52jOoHImK-75">
          <mxGeometry y="110" width="240" height="35" as="geometry" />
        </mxCell>
        <mxCell id="GFeIhN1m6Tv52jOoHImK-79" value="- baseAmount : double" style="text;html=1;strokeColor=none;fillColor=none;align=left;verticalAlign=middle;spacingLeft=4;spacingRight=4;overflow=hidden;rotatable=0;points=[[0,0.5],[1,0.5]];portConstraint=eastwest;whiteSpace=wrap;" vertex="1" parent="GFeIhN1m6Tv52jOoHImK-75">
          <mxGeometry y="145" width="240" height="35" as="geometry" />
        </mxCell>
        <mxCell id="GFeIhN1m6Tv52jOoHImK-80" value="- bonusAmount : double" style="text;html=1;strokeColor=none;fillColor=none;align=left;verticalAlign=middle;spacingLeft=4;spacingRight=4;overflow=hidden;rotatable=0;points=[[0,0.5],[1,0.5]];portConstraint=eastwest;whiteSpace=wrap;" vertex="1" parent="GFeIhN1m6Tv52jOoHImK-75">
          <mxGeometry y="180" width="240" height="35" as="geometry" />
        </mxCell>
        <mxCell id="GFeIhN1m6Tv52jOoHImK-81" value="- deductionAmount : double" style="text;html=1;strokeColor=none;fillColor=none;align=left;verticalAlign=middle;spacingLeft=4;spacingRight=4;overflow=hidden;rotatable=0;points=[[0,0.5],[1,0.5]];portConstraint=eastwest;whiteSpace=wrap;" vertex="1" parent="GFeIhN1m6Tv52jOoHImK-75">
          <mxGeometry y="215" width="240" height="35" as="geometry" />
        </mxCell>
        <mxCell id="GFeIhN1m6Tv52jOoHImK-82" value="- paymentDate : Date" style="text;html=1;strokeColor=none;fillColor=none;align=left;verticalAlign=middle;spacingLeft=4;spacingRight=4;overflow=hidden;rotatable=0;points=[[0,0.5],[1,0.5]];portConstraint=eastwest;whiteSpace=wrap;" vertex="1" parent="GFeIhN1m6Tv52jOoHImK-75">
          <mxGeometry y="250" width="240" height="35" as="geometry" />
        </mxCell>
        <mxCell id="GFeIhN1m6Tv52jOoHImK-83" value="- textAmount : double" style="text;html=1;strokeColor=none;fillColor=none;align=left;verticalAlign=middle;spacingLeft=4;spacingRight=4;overflow=hidden;rotatable=0;points=[[0,0.5],[1,0.5]];portConstraint=eastwest;whiteSpace=wrap;" vertex="1" parent="GFeIhN1m6Tv52jOoHImK-75">
          <mxGeometry y="285" width="240" height="35" as="geometry" />
        </mxCell>
        <mxCell id="GFeIhN1m6Tv52jOoHImK-84" value="- period : String" style="text;html=1;strokeColor=none;fillColor=none;align=left;verticalAlign=middle;spacingLeft=4;spacingRight=4;overflow=hidden;rotatable=0;points=[[0,0.5],[1,0.5]];portConstraint=eastwest;whiteSpace=wrap;" vertex="1" parent="GFeIhN1m6Tv52jOoHImK-75">
          <mxGeometry y="320" width="240" height="35" as="geometry" />
        </mxCell>
        <mxCell id="GFeIhN1m6Tv52jOoHImK-86" value="" style="line;strokeWidth=1;fillColor=none;align=left;verticalAlign=middle;spacingTop=-1;spacingLeft=3;spacingRight=3;rotatable=0;labelPosition=right;points=[];portConstraint=eastwest;" vertex="1" parent="GFeIhN1m6Tv52jOoHImK-75">
          <mxGeometry y="355" width="240" height="8" as="geometry" />
        </mxCell>
        <mxCell id="GFeIhN1m6Tv52jOoHImK-87" value="operations" style="text;html=1;strokeColor=none;fillColor=none;align=center;verticalAlign=middle;spacingLeft=4;spacingRight=4;overflow=hidden;rotatable=0;points=[[0,0.5],[1,0.5]];portConstraint=eastwest;whiteSpace=wrap;" vertex="1" parent="GFeIhN1m6Tv52jOoHImK-75">
          <mxGeometry y="363" width="240" height="20" as="geometry" />
        </mxCell>
        <mxCell id="GFeIhN1m6Tv52jOoHImK-88" value="+ calculateNetSalary() : double" style="text;html=1;strokeColor=none;fillColor=none;align=left;verticalAlign=middle;spacingLeft=4;spacingRight=4;overflow=hidden;rotatable=0;points=[[0,0.5],[1,0.5]];portConstraint=eastwest;whiteSpace=wrap;" vertex="1" parent="GFeIhN1m6Tv52jOoHImK-75">
          <mxGeometry y="383" width="240" height="37" as="geometry" />
        </mxCell>
        <mxCell id="GFeIhN1m6Tv52jOoHImK-89" value="+ addBonus(amount : double) : void&amp;nbsp;" style="text;html=1;strokeColor=none;fillColor=none;align=left;verticalAlign=middle;spacingLeft=4;spacingRight=4;overflow=hidden;rotatable=0;points=[[0,0.5],[1,0.5]];portConstraint=eastwest;whiteSpace=wrap;" vertex="1" parent="GFeIhN1m6Tv52jOoHImK-75">
          <mxGeometry y="420" width="240" height="37" as="geometry" />
        </mxCell>
        <mxCell id="GFeIhN1m6Tv52jOoHImK-90" value="+ addDeduction(amount : double) : void&amp;nbsp;" style="text;html=1;strokeColor=none;fillColor=none;align=left;verticalAlign=middle;spacingLeft=4;spacingRight=4;overflow=hidden;rotatable=0;points=[[0,0.5],[1,0.5]];portConstraint=eastwest;whiteSpace=wrap;" vertex="1" parent="GFeIhN1m6Tv52jOoHImK-75">
          <mxGeometry y="457" width="240" height="37" as="geometry" />
        </mxCell>
        <mxCell id="GFeIhN1m6Tv52jOoHImK-91" value="+ processPayment() : boolean" style="text;html=1;strokeColor=none;fillColor=none;align=left;verticalAlign=middle;spacingLeft=4;spacingRight=4;overflow=hidden;rotatable=0;points=[[0,0.5],[1,0.5]];portConstraint=eastwest;whiteSpace=wrap;" vertex="1" parent="GFeIhN1m6Tv52jOoHImK-75">
          <mxGeometry y="494" width="240" height="37" as="geometry" />
        </mxCell>
        <mxCell id="GFeIhN1m6Tv52jOoHImK-92" value="+ generatePayslip() : String" style="text;html=1;strokeColor=none;fillColor=none;align=left;verticalAlign=middle;spacingLeft=4;spacingRight=4;overflow=hidden;rotatable=0;points=[[0,0.5],[1,0.5]];portConstraint=eastwest;whiteSpace=wrap;" vertex="1" parent="GFeIhN1m6Tv52jOoHImK-75">
          <mxGeometry y="531" width="240" height="37" as="geometry" />
        </mxCell>
        <mxCell id="GFeIhN1m6Tv52jOoHImK-93" value="+ getEmployeeInfo() : Employee" style="text;html=1;strokeColor=none;fillColor=none;align=left;verticalAlign=middle;spacingLeft=4;spacingRight=4;overflow=hidden;rotatable=0;points=[[0,0.5],[1,0.5]];portConstraint=eastwest;whiteSpace=wrap;" vertex="1" parent="GFeIhN1m6Tv52jOoHImK-75">
          <mxGeometry y="568" width="240" height="37" as="geometry" />
        </mxCell>
        <mxCell id="GFeIhN1m6Tv52jOoHImK-94" value="&lt;div&gt;&lt;b&gt;VacationRequest&lt;/b&gt;&lt;/div&gt;" style="swimlane;fontStyle=0;align=center;verticalAlign=top;childLayout=stackLayout;horizontal=1;startSize=55;horizontalStack=0;resizeParent=1;resizeParentMax=0;resizeLast=0;collapsible=0;marginBottom=0;html=1;whiteSpace=wrap;" vertex="1" parent="1">
          <mxGeometry x="230" y="1620" width="240" height="640" as="geometry" />
        </mxCell>
        <mxCell id="GFeIhN1m6Tv52jOoHImK-95" value="attributes" style="text;html=1;strokeColor=none;fillColor=none;align=center;verticalAlign=middle;spacingLeft=4;spacingRight=4;overflow=hidden;rotatable=0;points=[[0,0.5],[1,0.5]];portConstraint=eastwest;whiteSpace=wrap;" vertex="1" parent="GFeIhN1m6Tv52jOoHImK-94">
          <mxGeometry y="55" width="240" height="20" as="geometry" />
        </mxCell>
        <mxCell id="GFeIhN1m6Tv52jOoHImK-96" value="- requestId : UUID" style="text;html=1;strokeColor=none;fillColor=none;align=left;verticalAlign=middle;spacingLeft=4;spacingRight=4;overflow=hidden;rotatable=0;points=[[0,0.5],[1,0.5]];portConstraint=eastwest;whiteSpace=wrap;" vertex="1" parent="GFeIhN1m6Tv52jOoHImK-94">
          <mxGeometry y="75" width="240" height="35" as="geometry" />
        </mxCell>
        <mxCell id="GFeIhN1m6Tv52jOoHImK-97" value="- employee : Employee" style="text;html=1;strokeColor=none;fillColor=none;align=left;verticalAlign=middle;spacingLeft=4;spacingRight=4;overflow=hidden;rotatable=0;points=[[0,0.5],[1,0.5]];portConstraint=eastwest;whiteSpace=wrap;" vertex="1" parent="GFeIhN1m6Tv52jOoHImK-94">
          <mxGeometry y="110" width="240" height="35" as="geometry" />
        </mxCell>
        <mxCell id="GFeIhN1m6Tv52jOoHImK-98" value="- startDate : Date" style="text;html=1;strokeColor=none;fillColor=none;align=left;verticalAlign=middle;spacingLeft=4;spacingRight=4;overflow=hidden;rotatable=0;points=[[0,0.5],[1,0.5]];portConstraint=eastwest;whiteSpace=wrap;" vertex="1" parent="GFeIhN1m6Tv52jOoHImK-94">
          <mxGeometry y="145" width="240" height="35" as="geometry" />
        </mxCell>
        <mxCell id="GFeIhN1m6Tv52jOoHImK-99" value="- endDate : Date" style="text;html=1;strokeColor=none;fillColor=none;align=left;verticalAlign=middle;spacingLeft=4;spacingRight=4;overflow=hidden;rotatable=0;points=[[0,0.5],[1,0.5]];portConstraint=eastwest;whiteSpace=wrap;" vertex="1" parent="GFeIhN1m6Tv52jOoHImK-94">
          <mxGeometry y="180" width="240" height="35" as="geometry" />
        </mxCell>
        <mxCell id="GFeIhN1m6Tv52jOoHImK-100" value="- status : String" style="text;html=1;strokeColor=none;fillColor=none;align=left;verticalAlign=middle;spacingLeft=4;spacingRight=4;overflow=hidden;rotatable=0;points=[[0,0.5],[1,0.5]];portConstraint=eastwest;whiteSpace=wrap;" vertex="1" parent="GFeIhN1m6Tv52jOoHImK-94">
          <mxGeometry y="215" width="240" height="35" as="geometry" />
        </mxCell>
        <mxCell id="GFeIhN1m6Tv52jOoHImK-101" value="- reason : String" style="text;html=1;strokeColor=none;fillColor=none;align=left;verticalAlign=middle;spacingLeft=4;spacingRight=4;overflow=hidden;rotatable=0;points=[[0,0.5],[1,0.5]];portConstraint=eastwest;whiteSpace=wrap;" vertex="1" parent="GFeIhN1m6Tv52jOoHImK-94">
          <mxGeometry y="250" width="240" height="35" as="geometry" />
        </mxCell>
        <mxCell id="GFeIhN1m6Tv52jOoHImK-102" value="- submissionDate : Date" style="text;html=1;strokeColor=none;fillColor=none;align=left;verticalAlign=middle;spacingLeft=4;spacingRight=4;overflow=hidden;rotatable=0;points=[[0,0.5],[1,0.5]];portConstraint=eastwest;whiteSpace=wrap;" vertex="1" parent="GFeIhN1m6Tv52jOoHImK-94">
          <mxGeometry y="285" width="240" height="35" as="geometry" />
        </mxCell>
        <mxCell id="GFeIhN1m6Tv52jOoHImK-103" value="- approvalDate : Date" style="text;html=1;strokeColor=none;fillColor=none;align=left;verticalAlign=middle;spacingLeft=4;spacingRight=4;overflow=hidden;rotatable=0;points=[[0,0.5],[1,0.5]];portConstraint=eastwest;whiteSpace=wrap;" vertex="1" parent="GFeIhN1m6Tv52jOoHImK-94">
          <mxGeometry y="320" width="240" height="35" as="geometry" />
        </mxCell>
        <mxCell id="GFeIhN1m6Tv52jOoHImK-104" value="- approvedBy : Employee" style="text;html=1;strokeColor=none;fillColor=none;align=left;verticalAlign=middle;spacingLeft=4;spacingRight=4;overflow=hidden;rotatable=0;points=[[0,0.5],[1,0.5]];portConstraint=eastwest;whiteSpace=wrap;" vertex="1" parent="GFeIhN1m6Tv52jOoHImK-94">
          <mxGeometry y="355" width="240" height="35" as="geometry" />
        </mxCell>
        <mxCell id="GFeIhN1m6Tv52jOoHImK-105" value="" style="line;strokeWidth=1;fillColor=none;align=left;verticalAlign=middle;spacingTop=-1;spacingLeft=3;spacingRight=3;rotatable=0;labelPosition=right;points=[];portConstraint=eastwest;" vertex="1" parent="GFeIhN1m6Tv52jOoHImK-94">
          <mxGeometry y="390" width="240" height="8" as="geometry" />
        </mxCell>
        <mxCell id="GFeIhN1m6Tv52jOoHImK-106" value="operations" style="text;html=1;strokeColor=none;fillColor=none;align=center;verticalAlign=middle;spacingLeft=4;spacingRight=4;overflow=hidden;rotatable=0;points=[[0,0.5],[1,0.5]];portConstraint=eastwest;whiteSpace=wrap;" vertex="1" parent="GFeIhN1m6Tv52jOoHImK-94">
          <mxGeometry y="398" width="240" height="20" as="geometry" />
        </mxCell>
        <mxCell id="GFeIhN1m6Tv52jOoHImK-107" value="+ approve(approver&amp;nbsp; : Employee) : void" style="text;html=1;strokeColor=none;fillColor=none;align=left;verticalAlign=middle;spacingLeft=4;spacingRight=4;overflow=hidden;rotatable=0;points=[[0,0.5],[1,0.5]];portConstraint=eastwest;whiteSpace=wrap;" vertex="1" parent="GFeIhN1m6Tv52jOoHImK-94">
          <mxGeometry y="418" width="240" height="37" as="geometry" />
        </mxCell>
        <mxCell id="GFeIhN1m6Tv52jOoHImK-108" value="+ reject(reason : String) : void" style="text;html=1;strokeColor=none;fillColor=none;align=left;verticalAlign=middle;spacingLeft=4;spacingRight=4;overflow=hidden;rotatable=0;points=[[0,0.5],[1,0.5]];portConstraint=eastwest;whiteSpace=wrap;" vertex="1" parent="GFeIhN1m6Tv52jOoHImK-94">
          <mxGeometry y="455" width="240" height="37" as="geometry" />
        </mxCell>
        <mxCell id="GFeIhN1m6Tv52jOoHImK-109" value="+ calculateDuration() : int" style="text;html=1;strokeColor=none;fillColor=none;align=left;verticalAlign=middle;spacingLeft=4;spacingRight=4;overflow=hidden;rotatable=0;points=[[0,0.5],[1,0.5]];portConstraint=eastwest;whiteSpace=wrap;" vertex="1" parent="GFeIhN1m6Tv52jOoHImK-94">
          <mxGeometry y="492" width="240" height="37" as="geometry" />
        </mxCell>
        <mxCell id="GFeIhN1m6Tv52jOoHImK-110" value="+ isOverLapping() : boolean" style="text;html=1;strokeColor=none;fillColor=none;align=left;verticalAlign=middle;spacingLeft=4;spacingRight=4;overflow=hidden;rotatable=0;points=[[0,0.5],[1,0.5]];portConstraint=eastwest;whiteSpace=wrap;" vertex="1" parent="GFeIhN1m6Tv52jOoHImK-94">
          <mxGeometry y="529" width="240" height="37" as="geometry" />
        </mxCell>
        <mxCell id="GFeIhN1m6Tv52jOoHImK-111" value="+ getStatus() : String" style="text;html=1;strokeColor=none;fillColor=none;align=left;verticalAlign=middle;spacingLeft=4;spacingRight=4;overflow=hidden;rotatable=0;points=[[0,0.5],[1,0.5]];portConstraint=eastwest;whiteSpace=wrap;" vertex="1" parent="GFeIhN1m6Tv52jOoHImK-94">
          <mxGeometry y="566" width="240" height="37" as="geometry" />
        </mxCell>
        <mxCell id="GFeIhN1m6Tv52jOoHImK-112" value="+ getEmployeeInfo() : Employee" style="text;html=1;strokeColor=none;fillColor=none;align=left;verticalAlign=middle;spacingLeft=4;spacingRight=4;overflow=hidden;rotatable=0;points=[[0,0.5],[1,0.5]];portConstraint=eastwest;whiteSpace=wrap;" vertex="1" parent="GFeIhN1m6Tv52jOoHImK-94">
          <mxGeometry y="603" width="240" height="37" as="geometry" />
        </mxCell>
        <mxCell id="GFeIhN1m6Tv52jOoHImK-133" value="" style="rhombus;whiteSpace=wrap;html=1;fillColor=light-dark(#FFFFFF,#FFFFFF);" vertex="1" parent="1">
          <mxGeometry x="600" y="1050" width="30" height="20" as="geometry" />
        </mxCell>
        <mxCell id="GFeIhN1m6Tv52jOoHImK-134" style="edgeStyle=orthogonalEdgeStyle;rounded=0;orthogonalLoop=1;jettySize=auto;html=1;exitX=0;exitY=0.5;exitDx=0;exitDy=0;endArrow=none;endFill=0;" edge="1" parent="1" source="GFeIhN1m6Tv52jOoHImK-133">
          <mxGeometry relative="1" as="geometry">
            <mxPoint x="470" y="854" as="targetPoint" />
            <Array as="points">
              <mxPoint x="550" y="1060" />
              <mxPoint x="550" y="854" />
            </Array>
          </mxGeometry>
        </mxCell>
        <mxCell id="GFeIhN1m6Tv52jOoHImK-157" style="edgeStyle=orthogonalEdgeStyle;rounded=0;orthogonalLoop=1;jettySize=auto;html=1;exitX=0;exitY=0.5;exitDx=0;exitDy=0;entryX=0.75;entryY=0;entryDx=0;entryDy=0;endArrow=none;endFill=0;" edge="1" parent="1" source="GFeIhN1m6Tv52jOoHImK-154" target="GFeIhN1m6Tv52jOoHImK-75">
          <mxGeometry relative="1" as="geometry">
            <Array as="points">
              <mxPoint x="90" y="1170" />
              <mxPoint x="90" y="810" />
              <mxPoint x="-40" y="810" />
            </Array>
          </mxGeometry>
        </mxCell>
        <mxCell id="GFeIhN1m6Tv52jOoHImK-154" value="" style="rhombus;whiteSpace=wrap;html=1;fillColor=none;" vertex="1" parent="1">
          <mxGeometry x="200" y="1160" width="30" height="20" as="geometry" />
        </mxCell>
        <mxCell id="GFeIhN1m6Tv52jOoHImK-158" style="edgeStyle=orthogonalEdgeStyle;rounded=0;orthogonalLoop=1;jettySize=auto;html=1;exitX=0;exitY=0.5;exitDx=0;exitDy=0;entryX=0.25;entryY=0;entryDx=0;entryDy=0;endArrow=none;endFill=0;" edge="1" parent="1" source="GFeIhN1m6Tv52jOoHImK-156" target="GFeIhN1m6Tv52jOoHImK-94">
          <mxGeometry relative="1" as="geometry">
            <Array as="points">
              <mxPoint x="110" y="1200" />
              <mxPoint x="110" y="1550" />
              <mxPoint x="290" y="1550" />
            </Array>
          </mxGeometry>
        </mxCell>
        <mxCell id="GFeIhN1m6Tv52jOoHImK-156" value="" style="rhombus;whiteSpace=wrap;html=1;fillColor=none;" vertex="1" parent="1">
          <mxGeometry x="200" y="1190" width="30" height="20" as="geometry" />
        </mxCell>
        <mxCell id="GFeIhN1m6Tv52jOoHImK-162" value="" style="rhombus;whiteSpace=wrap;html=1;fillColor=none;" vertex="1" parent="1">
          <mxGeometry x="-250" y="950" width="30" height="20" as="geometry" />
        </mxCell>
        <mxCell id="GFeIhN1m6Tv52jOoHImK-163" style="edgeStyle=orthogonalEdgeStyle;rounded=0;orthogonalLoop=1;jettySize=auto;html=1;exitX=0;exitY=0.5;exitDx=0;exitDy=0;entryX=0.003;entryY=0.034;entryDx=0;entryDy=0;entryPerimeter=0;endArrow=none;endFill=0;" edge="1" parent="1" source="GFeIhN1m6Tv52jOoHImK-162" target="GFeIhN1m6Tv52jOoHImK-20">
          <mxGeometry relative="1" as="geometry">
            <Array as="points">
              <mxPoint x="-270" y="960" />
              <mxPoint x="-270" y="750" />
              <mxPoint x="130" y="750" />
              <mxPoint x="130" y="852" />
            </Array>
          </mxGeometry>
        </mxCell>
      </root>
    </mxGraphModel>
  </diagram>
</mxfile>
